<?xml version="1.0" standalone="no"?>
<!DOCTYPE svg PUBLIC "-//W3C//DTD SVG 20010904//EN"
 "http://www.w3.org/TR/2001/REC-SVG-20010904/DTD/svg10.dtd">
<svg version="1.0" xmlns="http://www.w3.org/2000/svg"
 width="148.000000pt" height="39.000000pt" viewBox="0 0 148.000000 39.000000"
 preserveAspectRatio="xMidYMid meet">

<g transform="translate(0.000000,39.000000) scale(0.100000,-0.100000)"
fill="#000000" stroke="none">
<path d="M1206 376 c-78 -29 -126 -97 -126 -181 0 -60 19 -103 63 -142 99 -87
256 -58 315 57 61 122 -20 264 -159 276 -33 3 -69 -1 -93 -10z m109 -90 c40
-17 55 -42 55 -93 0 -48 -21 -78 -64 -93 -64 -21 -121 23 -121 95 0 48 30 91
69 98 11 2 22 5 24 6 1 0 18 -5 37 -13z"/>
<path d="M1250 215 c-6 -8 -9 -23 -5 -35 8 -25 51 -27 64 -2 20 38 -31 71 -59
37z"/>
<path d="M0 190 l0 -180 140 0 140 0 0 45 0 45 -91 0 -90 0 3 27 c3 27 5 28
76 31 l72 3 0 34 0 34 -72 3 c-71 3 -73 4 -76 31 l-3 27 90 0 91 0 0 40 0 40
-140 0 -140 0 0 -180z"/>
<path d="M330 190 l0 -180 103 0 c114 0 168 17 205 64 71 91 45 228 -54 276
-32 16 -61 20 -147 20 l-107 0 0 -180z m193 88 c35 -18 46 -40 47 -86 0 -60
-32 -92 -95 -92 l-45 0 0 95 0 95 36 0 c19 0 45 -5 57 -12z"/>
<path d="M814 333 c-9 -21 -41 -96 -71 -168 -30 -72 -57 -136 -60 -142 -4 -10
10 -13 50 -13 52 0 56 2 66 30 10 30 11 30 86 30 75 0 76 0 86 -30 10 -28 14
-30 65 -30 30 0 54 2 54 4 0 2 -33 82 -73 177 l-74 174 -57 3 -57 3 -15 -38z
m115 -180 c1 -9 -14 -13 -44 -13 -25 0 -45 2 -45 4 0 2 10 30 22 62 l22 58 22
-50 c13 -27 23 -55 23 -61z"/>
</g>
</svg>
