<?xml version="1.0" standalone="no"?>
<!DOCTYPE svg PUBLIC "-//W3C//DTD SVG 20010904//EN"
 "http://www.w3.org/TR/2001/REC-SVG-20010904/DTD/svg10.dtd">
<svg version="1.0" xmlns="http://www.w3.org/2000/svg"
 width="64.000000pt" height="64.000000pt" viewBox="0 0 64.000000 64.000000"
 preserveAspectRatio="xMidYMid meet">

<g transform="translate(0.000000,64.000000) scale(0.100000,-0.100000)"
fill="#000000" stroke="none">
<path d="M120 473 c-37 -14 -74 -49 -91 -87 -35 -76 -20 -154 40 -211 26 -24
41 -30 94 -33 52 -3 67 0 96 20 52 35 71 68 77 129 7 75 -23 135 -86 167 -42
21 -97 27 -130 15z m112 -113 c25 -26 29 -36 24 -63 -13 -66 -93 -91 -141 -42
-33 33 -32 70 4 106 39 38 74 38 113 -1z"/>
<path d="M152 328 c-30 -30 9 -69 44 -43 15 11 17 17 8 32 -14 23 -36 27 -52
11z"/>
<path d="M540 380 l0 -30 -86 0 c-74 0 -85 -2 -80 -16 3 -9 6 -31 6 -50 l0
-34 130 0 130 0 0 80 0 80 -50 0 c-49 0 -50 -1 -50 -30z"/>
</g>
</svg>
